<svg xmlns="http://www.w3.org/2000/svg" viewBox="0 0 480 50"><defs><style>.cls-1{fill:#0b420b;}.cls-2{fill:#bc0233;}.cls-3{fill:#4da04d;}.cls-4{fill:#ffaf22;}</style></defs><g id="Layer_2" data-name="Layer 2"><path d="M172,33h0Z"/><path d="M171.5,33h0Z"/><path class="cls-1" d="M461.55,26.12c-3.56,3-6.92,5.88-13.8,5.88s-10.24-2.86-13.8-5.88S426.75,20,419.5,20c-6.19,0-10.8,2.6-15.68,5.36C398,28.62,392.07,32,382.5,32c-8.89,0-16.61-4.24-24.07-8.34-7.63-4.2-14.82-8.16-23-7.66A30.23,30.23,0,0,0,329,17.09C327,13.77,322,11,313.5,11c-6.89,0-16.38,4.62-25.56,9.08C279.56,24.15,271.66,28,266.5,28c-6.68,0-10.2-2.05-14.65-4.66A55.29,55.29,0,0,0,240.66,18c-8.09-2.7-16.59,1.25-24.81,5.06A73.75,73.75,0,0,1,203.38,28a11.46,11.46,0,0,1-9.83-1.78,12.28,12.28,0,0,0,1.56-1.48A6.64,6.64,0,0,0,197,19.44c-.66-5.23-4.3-8.24-7.39-8.43A3.22,3.22,0,0,0,186,13.38c-.59,2.34,1,8,5,12,.27.26.55.53.86.79-5.39,3.7-14.66,5.74-20.2,5.79-8-.07-11.91-2.91-16.07-5.91S147.18,20,138.7,20s-12.79,3.1-16.95,6.09S113.56,32,105.39,32,93.25,29.13,89,26.09,80.58,20,72.1,20s-12.79,3.1-16.95,6.09S47,32,38.8,32s-12.15-2.87-16.36-5.91S14,20,5.5,20v1c8.16,0,12.14,2.87,16.36,5.91S30.31,33,38.8,33s12.78-3.1,16.94-6.09S63.93,21,72.1,21s12.14,2.87,16.35,5.91S96.91,33,105.39,33s12.79-3.1,17-6.09S130.53,21,138.7,21s12.14,2.87,16.36,5.91c4.07,2.93,8.28,6,16.44,6.08h.5c5.93-.11,15.25-2.22,20.72-6.12A12.51,12.51,0,0,0,203.62,29a75.06,75.06,0,0,0,12.65-5c8-3.74,16.36-7.6,24.07-5a54.76,54.76,0,0,1,11,5.24c4.4,2.57,8.2,4.79,15.15,4.79,5.39,0,13.39-3.89,21.87-8,9.09-4.41,18.47-9,25.13-9,7.94,0,12.66,2.45,14.54,5.39-7.12,2.35-11.15,7-11.32,10.34a3,3,0,0,0,2.7,3.26,8,8,0,0,0,6.65-1.87A11.71,11.71,0,0,0,330,20.5a6.45,6.45,0,0,0-.52-2.51,28.94,28.94,0,0,1,6-1c7.83-.5,14.92,3.41,22.42,7.53S373.35,33,382.5,33c9.84,0,16.2-3.6,21.81-6.77,4.76-2.69,9.26-5.23,15.19-5.23,6.88,0,10.24,2.86,13.8,5.88S440.5,33,447.75,33s10.91-3.11,14.45-6.12S469.12,21,476,21V20C468.75,20,465.09,23.11,461.55,26.12ZM191.76,24.71c-3.69-3.68-5.29-9-4.78-11.09A2.22,2.22,0,0,1,189.33,12h.22c2.69.16,5.87,2.86,6.45,7.55a5.64,5.64,0,0,1-1.64,4.53,11.79,11.79,0,0,1-1.62,1.51A12.24,12.24,0,0,1,191.76,24.71Zm133.66,3.65A7,7,0,0,1,319.58,30a2,2,0,0,1-1.86-2.22c.1-1.95,1.91-4.48,4.61-6.44a22.16,22.16,0,0,1,6.19-3.07A5.52,5.52,0,0,1,329,20.5,10.66,10.66,0,0,1,325.42,28.36Z"/><path class="cls-2" d="M12.52,16.32c3.37.64,3.95-2.37,4.1-3.12a8.75,8.75,0,0,0-1.55-6.69.91.91,0,0,0-1.27-.24,8.68,8.68,0,0,0-3.92,5.64C9.73,12.66,9.16,15.67,12.52,16.32Z"/><rect class="cls-1" x="11.22" y="16.15" width="1.83" height="4.3" transform="translate(-8.13 26.76) rotate(-79.12)"/><path class="cls-3" d="M42.11,37.46c3.37-.65,4,2.36,4.09,3.11a8.65,8.65,0,0,1-1.55,6.69.9.9,0,0,1-1.26.25,8.7,8.7,0,0,1-3.92-5.64C39.32,41.11,38.75,38.11,42.11,37.46Z"/><rect class="cls-1" x="39.57" y="34.56" width="4.3" height="1.83" transform="translate(-5.95 8.51) rotate(-10.88)"/><path class="cls-4" d="M87.52,19.32c3.37.64,4-2.37,4.1-3.12a8.75,8.75,0,0,0-1.55-6.69.91.91,0,0,0-1.27-.24,8.68,8.68,0,0,0-3.92,5.64C84.73,15.66,84.16,18.67,87.52,19.32Z"/><rect class="cls-1" x="86.22" y="19.15" width="1.83" height="4.3" transform="translate(49.76 102.85) rotate(-79.12)"/><path class="cls-2" d="M131.11,26.46c3.37-.65,3.95,2.36,4.09,3.11a8.65,8.65,0,0,1-1.55,6.69.9.9,0,0,1-1.26.25,8.7,8.7,0,0,1-3.92-5.64C128.32,30.11,127.75,27.11,131.11,26.46Z"/><rect class="cls-1" x="128.57" y="23.56" width="4.3" height="1.83" transform="translate(-2.27 25.12) rotate(-10.88)"/><path class="cls-3" d="M165.52,25.32c3.37.64,3.95-2.37,4.1-3.12a8.75,8.75,0,0,0-1.55-6.69.91.91,0,0,0-1.27-.24,8.68,8.68,0,0,0-3.92,5.64C162.73,21.66,162.16,24.67,165.52,25.32Z"/><rect class="cls-1" x="164.22" y="25.15" width="1.83" height="4.3" transform="translate(107.14 184.31) rotate(-79.12)"/><path class="cls-4" d="M217.11,28.46c3.37-.65,3.95,2.36,4.09,3.11a8.65,8.65,0,0,1-1.55,6.69.9.9,0,0,1-1.26.25,8.7,8.7,0,0,1-3.92-5.64C214.32,32.11,213.75,29.11,217.11,28.46Z"/><rect class="cls-1" x="214.57" y="25.56" width="4.3" height="1.83" transform="translate(-1.1 41.39) rotate(-10.88)"/><path class="cls-2" d="M251.52,17.32c3.37.64,3.95-2.37,4.1-3.12a8.75,8.75,0,0,0-1.55-6.69.91.91,0,0,0-1.27-.24,8.68,8.68,0,0,0-3.92,5.64C248.73,13.66,248.16,16.67,251.52,17.32Z"/><rect class="cls-1" x="250.22" y="17.15" width="1.83" height="4.3" transform="translate(184.76 262.27) rotate(-79.12)"/><path class="cls-3" d="M289.11,26.46c3.37-.65,3.95,2.36,4.09,3.11a8.65,8.65,0,0,1-1.55,6.69.9.9,0,0,1-1.26.25,8.7,8.7,0,0,1-3.92-5.64C286.32,30.11,285.75,27.11,289.11,26.46Z"/><rect class="cls-1" x="286.57" y="23.56" width="4.3" height="1.83" transform="translate(0.57 54.95) rotate(-10.88)"/><path class="cls-4" d="M359.52,18.32c3.37.64,4-2.37,4.1-3.12a8.75,8.75,0,0,0-1.55-6.69.91.91,0,0,0-1.27-.24,8.68,8.68,0,0,0-3.92,5.64C356.73,14.66,356.16,17.67,359.52,18.32Z"/><rect class="cls-1" x="358.22" y="18.15" width="1.83" height="4.3" transform="translate(271.39 369.14) rotate(-79.12)"/><path class="cls-2" d="M390.11,37.46c3.37-.65,3.95,2.36,4.09,3.11a8.65,8.65,0,0,1-1.55,6.69.9.9,0,0,1-1.26.25,8.7,8.7,0,0,1-3.92-5.64C387.32,41.11,386.75,38.11,390.11,37.46Z"/><rect class="cls-1" x="387.57" y="34.56" width="4.3" height="1.83" transform="translate(0.31 74.22) rotate(-10.88)"/><path class="cls-3" d="M423.52,15.32c3.37.64,4-2.37,4.1-3.12a8.75,8.75,0,0,0-1.55-6.69.91.91,0,0,0-1.27-.24,8.68,8.68,0,0,0-3.92,5.64C420.73,11.66,420.16,14.67,423.52,15.32Z"/><rect class="cls-1" x="422.22" y="15.15" width="1.83" height="4.3" transform="translate(326.25 429.56) rotate(-79.12)"/><path class="cls-4" d="M455.11,37.46c3.37-.65,3.95,2.36,4.09,3.11a8.65,8.65,0,0,1-1.55,6.69.9.9,0,0,1-1.26.25,8.7,8.7,0,0,1-3.92-5.64C452.32,41.11,451.75,38.11,455.11,37.46Z"/><rect class="cls-1" x="452.57" y="34.56" width="4.3" height="1.83" transform="translate(1.48 86.49) rotate(-10.88)"/></g></svg>