<svg xmlns="http://www.w3.org/2000/svg" viewBox="0 0 24 24"><defs><style>.cls-1{fill:#fff;}.cls-2{fill:#4da04d;}.cls-3{fill:#0b420b;}</style></defs><g id="Layer_2" data-name="Layer 2"><path class="cls-1" d="M12,7.15a7,7,0,1,1-6.95,7,6.94,6.94,0,0,1,7-6.95m0-2.31a9.27,9.27,0,1,0,9.27,9.26A9.27,9.27,0,0,0,12,4.84Z"/><path class="cls-1" d="M7.89,3a.94.94,0,0,1,.43.1A1.69,1.69,0,0,1,9.2,4.12L9.54,5l1.28-.47.74,2.09a4.87,4.87,0,0,0-.76-.06A5.2,5.2,0,0,0,7.65,7.62l-1,.74L6,6.3l3-1.09-.35-.86a1.15,1.15,0,0,0-.53-.72.39.39,0,0,0-.15,0l-.17,0a.53.53,0,0,0-.26.24,1.38,1.38,0,0,0,.1.88L7,5a1.91,1.91,0,0,1-.09-1.37A1.17,1.17,0,0,1,7.48,3,1.19,1.19,0,0,1,7.89,3m0-2.32a3.47,3.47,0,0,0-1.3.26A3.52,3.52,0,0,0,4.74,2.72a3.79,3.79,0,0,0-.25,1.65L3,4.91l.78,2.17.75,2.06,1.08,3,2.52-2,1-.75a2.93,2.93,0,0,1,1.73-.58,3,3,0,0,1,.42,0L15,9.46l-1.3-3.64L13,3.74l-.78-2.2-1.51.55A3.54,3.54,0,0,0,9.28.94,3.32,3.32,0,0,0,7.89.63Z"/><circle class="cls-2" cx="12" cy="14.1" r="6.95"/><path class="cls-3" d="M11.57,6.6a5.21,5.21,0,0,0-3.91,1l-1,.74L6,6.29l3-1.08-.34-.86a1.16,1.16,0,0,0-.53-.71.42.42,0,0,0-.33,0,.41.41,0,0,0-.24.23,1.21,1.21,0,0,0,.1.88L7,5a1.8,1.8,0,0,1-.09-1.37A1.1,1.1,0,0,1,7.49,3a1,1,0,0,1,.84,0A1.74,1.74,0,0,1,9.2,4.11L9.55,5l1.26-.46Z"/></g></svg>